<svg width="955" height="171" viewBox="0 0 955 171" fill="none" xmlns="http://www.w3.org/2000/svg">
<g clip-path="url(#clip0_7_2)">
<path d="M85.0074 0V42.7438H233.773C257.246 42.7438 276.271 23.609 276.271 0H84.9949H85.0074Z" fill="url(#paint0_linear_7_2)"/>
<path d="M191.263 106.872C214.736 106.872 233.761 87.7372 233.761 64.1281H84.9949V106.872H191.263Z" fill="url(#paint1_linear_7_2)"/>
<path d="M63.7586 85.5V21.3719H0C0 56.7917 28.5429 85.5 63.7586 85.5Z" fill="url(#paint2_linear_7_2)"/>
<path d="M148.766 128.256H85.0074C85.0074 134.155 82.6215 139.505 78.7819 143.367C74.9297 147.228 69.6238 149.628 63.7586 149.628V171H170.015V149.628C158.272 149.628 148.766 140.055 148.766 128.256Z" fill="url(#paint3_linear_7_2)"/>
<path d="M810.173 83.5502H836.243V133.868C829.545 138.942 821.792 142.842 812.994 145.554C804.196 148.266 795.324 149.628 786.402 149.628C773.615 149.628 762.096 146.878 751.882 141.392C741.668 135.905 733.653 128.294 727.837 118.545C722.022 108.796 719.114 97.7981 719.114 85.4999C719.114 73.2017 722.022 62.2158 727.837 52.4672C733.653 42.7187 741.717 35.1073 752.056 29.6206C762.395 24.1339 774.013 21.3843 786.924 21.3843C797.722 21.3843 807.539 23.209 816.337 26.871C825.147 30.5329 832.54 35.8447 838.53 42.8186L820.213 59.8287C811.403 50.505 800.779 45.8307 788.34 45.8307C780.475 45.8307 773.479 47.493 767.377 50.7925C761.276 54.092 756.517 58.7538 753.112 64.7779C749.695 70.8021 748.005 77.7135 748.005 85.4999C748.005 93.2863 749.707 100.035 753.112 106.047C756.517 112.071 761.239 116.77 767.29 120.132C773.342 123.494 780.239 125.182 787.992 125.182C796.206 125.182 803.6 123.419 810.186 119.87V83.5502H810.173Z" fill="white"/>
<path d="M887.899 46.4557H915.622H952.714V23.4341H859.542V46.4557H887.899Z" fill="white"/>
<path d="M887.899 124.394V95.7111H945.134V73.3768H915.622H887.899H859.542V147.428H955V124.394H887.899Z" fill="white"/>
<path d="M318.781 79.3008V147.503H347.311V102.322H404.372V79.3008H318.781Z" fill="white"/>
<path d="M411.952 23.4965H318.781V46.5306H411.952V23.4965Z" fill="white"/>
<path d="M465.82 141.304C455.543 135.755 447.503 128.106 441.688 118.358C435.873 108.622 432.965 97.6607 432.965 85.4999C432.965 73.3392 435.873 62.3783 441.688 52.6422C447.503 42.8937 455.543 35.2448 465.82 29.6956C476.084 24.1464 487.628 21.3718 500.426 21.3718C513.225 21.3718 524.732 24.1464 534.946 29.6956C545.161 35.2448 553.2 42.8937 559.078 52.6422C564.943 62.3783 567.888 73.3392 567.888 85.4999C567.888 97.6607 564.956 108.622 559.078 118.358C553.2 128.106 545.161 135.755 534.946 141.304C524.732 146.853 513.225 149.628 500.426 149.628C487.628 149.628 476.084 146.853 465.82 141.304ZM520.159 120.132C526.024 116.77 530.634 112.071 533.977 106.047C537.32 100.023 538.997 93.1863 538.997 85.4999C538.997 77.8136 537.332 70.9771 533.977 64.953C530.634 58.9288 526.024 54.2295 520.159 50.8675C514.282 47.5055 507.708 45.8182 500.426 45.8182C493.145 45.8182 486.571 47.5055 480.706 50.8675C474.829 54.2295 470.218 58.9288 466.876 64.953C463.533 70.9771 461.856 77.8261 461.856 85.4999C461.856 93.1738 463.521 100.035 466.876 106.047C470.218 112.071 474.829 116.77 480.706 120.132C486.571 123.494 493.145 125.182 500.426 125.182C507.708 125.182 514.282 123.507 520.159 120.132Z" fill="white"/>
<path d="M670.441 107.634C678.543 104.097 684.793 98.9855 689.205 92.3114C693.604 85.6374 695.803 77.6886 695.803 68.4774C695.803 59.2663 693.628 51.2924 689.292 44.5559C684.955 37.8194 678.754 32.6327 670.715 28.9707C662.675 25.3087 653.194 23.484 642.271 23.484H588.913V46.9556H617.444V46.8681H640.693C649.267 46.8681 655.778 48.7303 660.239 52.4423C664.7 56.1667 666.937 61.5159 666.937 68.4774C666.937 75.4389 664.713 80.6507 660.239 84.4251C655.778 88.1995 649.254 90.0868 640.693 90.0868H588.913V147.478H617.444V112.933H643.688L667.471 147.478H698.114L670.454 107.622L670.441 107.634Z" fill="white"/>
</g>
<defs>
<linearGradient id="paint0_linear_7_2" x1="62.7521" y1="171.225" x2="283.064" y2="-4.38156" gradientUnits="userSpaceOnUse">
<stop stop-color="#CD212A"/>
<stop offset="1" stop-color="#FFA500"/>
</linearGradient>
<linearGradient id="paint1_linear_7_2" x1="62.7521" y1="171.225" x2="283.064" y2="-4.38156" gradientUnits="userSpaceOnUse">
<stop stop-color="#CD212A"/>
<stop offset="1" stop-color="#FFA500"/>
</linearGradient>
<linearGradient id="paint2_linear_7_2" x1="62.7521" y1="171.225" x2="283.064" y2="-4.38156" gradientUnits="userSpaceOnUse">
<stop stop-color="#CD212A"/>
<stop offset="1" stop-color="#FFA500"/>
</linearGradient>
<linearGradient id="paint3_linear_7_2" x1="62.7521" y1="171.225" x2="283.064" y2="-4.38156" gradientUnits="userSpaceOnUse">
<stop stop-color="#CD212A"/>
<stop offset="1" stop-color="#FFA500"/>
</linearGradient>
<clipPath id="clip0_7_2">
<rect width="955" height="171" fill="white"/>
</clipPath>
</defs>
</svg>
