<svg width="40" height="40" viewBox="0 0 40 40" fill="none" xmlns="http://www.w3.org/2000/svg">
<path d="M20.5 37C29.6127 37 37 29.6127 37 20.5C37 11.3873 29.6127 4 20.5 4C11.3873 4 4 11.3873 4 20.5C4 29.6127 11.3873 37 20.5 37Z" fill="#8E7BD8"/>
<path d="M20.5 34.5035C28.2339 34.5035 34.5035 28.2339 34.5035 20.5C34.5035 12.7661 28.2339 6.49658 20.5 6.49658C12.7661 6.49658 6.49658 12.7661 6.49658 20.5C6.49658 28.2339 12.7661 34.5035 20.5 34.5035Z" fill="#7A68BB"/>
<path d="M27.8266 8.54834C29.2209 10.7253 30.0295 13.3139 30.0295 16.091C30.0295 23.825 23.7601 30.0945 16.0261 30.0945C13.3404 30.0945 10.8313 29.3378 8.69958 28.0267C11.1884 31.9118 15.5433 34.4874 20.5001 34.4874C28.234 34.4874 34.5035 28.2179 34.5035 20.4839C34.5035 15.4362 31.8323 11.0127 27.8266 8.54834Z" fill="#7263AA"/>
<path d="M8.94954 21.7812C8.94954 14.9541 14.4837 9.41998 21.3108 9.41998C25.3014 9.41998 28.8493 11.3111 31.1094 14.2458C28.9751 10.5404 24.974 8.04541 20.3904 8.04541C13.5633 8.04541 8.02917 13.5795 8.02917 20.4066C8.02917 23.2431 8.9854 25.8561 10.5917 27.9421C9.54717 26.1284 8.94902 24.0247 8.94902 21.7812H8.94954Z" fill="#A79CD1"/>
<path d="M12.0072 18.6048C11.9105 18.69 11.8622 18.8122 11.8622 18.9712V19.2695H12.885V20.2756H11.8622V23.6598H10.3531V20.2756H9.73047V19.2695H10.3531V18.8434C10.3531 18.3549 10.5162 17.9698 10.8431 17.6881C11.17 17.4069 11.5889 17.2661 12.1008 17.2661C12.4359 17.2661 12.7654 17.3259 13.0897 17.4454L12.8938 18.5965C12.6662 18.517 12.4957 18.477 12.3824 18.477C12.2291 18.477 12.1039 18.5196 12.0072 18.6048Z" fill="white"/>
<path d="M13.7545 17.6836H18.4691V18.9282H15.3146V20.045H18.162V21.2814L15.3146 21.2897V22.4148H18.5543V23.6595H13.7545V17.6836Z" fill="white"/>
<path d="M21.2993 22.0999C21.5207 22.3275 21.8023 22.4408 22.1432 22.4408C22.4842 22.4408 22.7497 22.3285 22.9576 22.104C23.1649 21.8795 23.2689 21.5771 23.2689 21.1961V17.6836H24.829V21.1961C24.829 21.7132 24.7193 22.1664 24.5005 22.5556C24.2818 22.9449 23.9689 23.2447 23.563 23.4552C23.1566 23.6652 22.6806 23.7707 22.1349 23.7707C21.5893 23.7707 21.1106 23.6652 20.6985 23.4552C20.2864 23.2453 19.9684 22.9454 19.7439 22.5556C19.5194 22.1664 19.4071 21.7132 19.4071 21.1961V17.6836H20.9672V21.1961C20.9672 21.5714 21.0779 21.8728 21.2998 22.0999H21.2993Z" fill="white"/>
<path d="M29.4832 23.6604L28.6138 22.0068H27.4544V23.6604H25.8943V17.6846H28.5795C29.3694 17.6846 29.9816 17.868 30.4166 18.2344C30.8516 18.6008 31.0688 19.1168 31.0688 19.7815C31.0688 20.2305 30.9778 20.6182 30.796 20.9451C30.6141 21.272 30.3495 21.5261 30.0029 21.708L31.2476 23.6604H29.4827H29.4832ZM27.4544 20.7621H28.5883C28.9064 20.7621 29.1522 20.6826 29.3258 20.5236C29.4988 20.3646 29.5856 20.1344 29.5856 19.8329C29.5856 19.5315 29.4988 19.32 29.3258 19.1636C29.1522 19.0072 28.9064 18.9292 28.5883 18.9292H27.4544V20.7621Z" fill="white"/>
</svg>
