<svg width="40" height="40" viewBox="0 0 40 40" fill="none" xmlns="http://www.w3.org/2000/svg">
<path d="M20.5 37C29.6127 37 37 29.6127 37 20.5C37 11.3873 29.6127 4 20.5 4C11.3873 4 4 11.3873 4 20.5C4 29.6127 11.3873 37 20.5 37Z" fill="#7BBBD8"/>
<path d="M20.5 34.5035C28.2339 34.5035 34.5035 28.2339 34.5035 20.5C34.5035 12.7661 28.2339 6.49658 20.5 6.49658C12.7661 6.49658 6.49658 12.7661 6.49658 20.5C6.49658 28.2339 12.7661 34.5035 20.5 34.5035Z" fill="#609DBB"/>
<path d="M27.8266 8.54834C29.2209 10.7253 30.0295 13.3139 30.0295 16.091C30.0295 23.825 23.7601 30.0945 16.0261 30.0945C13.3404 30.0945 10.8313 29.3378 8.69958 28.0267C11.1884 31.9118 15.5433 34.4874 20.5001 34.4874C28.234 34.4874 34.5035 28.2179 34.5035 20.4839C34.5035 15.4362 31.8323 11.0127 27.8266 8.54834Z" fill="#6393AA"/>
<path d="M8.94954 21.7812C8.94954 14.9541 14.4837 9.41998 21.3108 9.41998C25.3014 9.41998 28.8493 11.3111 31.1094 14.2458C28.9751 10.5404 24.974 8.04541 20.3904 8.04541C13.5633 8.04541 8.02917 13.5795 8.02917 20.4066C8.02917 23.2431 8.9854 25.8561 10.5917 27.9421C9.54717 26.1284 8.94902 24.0247 8.94902 21.7812H8.94954Z" fill="#9CC0D1"/>
<path d="M12.0499 18.6048C11.9533 18.69 11.9049 18.8122 11.9049 18.9712V19.2695H12.9277V20.2756H11.9049V23.6598H10.3958V20.2756H9.77319V19.2695H10.3958V18.8434C10.3958 18.3549 10.559 17.9698 10.8858 17.6881C11.2127 17.4069 11.6316 17.2661 12.1435 17.2661C12.4787 17.2661 12.8082 17.3259 13.1324 17.4454L12.9365 18.5965C12.7089 18.517 12.5384 18.477 12.4251 18.477C12.2718 18.477 12.1466 18.5196 12.0499 18.6048Z" fill="white"/>
<path d="M17.6932 20.6081H19.0402V22.9867C18.7217 23.2201 18.3314 23.4087 17.8678 23.5537C17.4048 23.6987 16.9657 23.7709 16.551 23.7709C15.9486 23.7709 15.4045 23.6358 14.9186 23.3661C14.4327 23.0964 14.0502 22.7253 13.7722 22.2535C13.4936 21.7816 13.3544 21.2531 13.3544 20.6679C13.3544 20.0827 13.4978 19.5641 13.7847 19.0948C14.0715 18.6261 14.4665 18.2581 14.9696 17.991C15.4726 17.7239 16.0339 17.5903 16.6533 17.5903C17.0966 17.5903 17.5399 17.6714 17.9832 17.833C18.4265 17.9952 18.8017 18.2124 19.1083 18.4852L18.2217 19.5766C18.0056 19.3718 17.7571 19.2102 17.476 19.0907C17.1948 18.9711 16.9179 18.9119 16.645 18.9119C16.3264 18.9119 16.0396 18.9888 15.7839 19.1421C15.5282 19.2954 15.3266 19.5059 15.1785 19.773C15.0304 20.0401 14.9566 20.3384 14.9566 20.6679C14.9566 20.9974 15.0304 21.3061 15.1785 21.5758C15.3261 21.846 15.5308 22.0575 15.7922 22.2109C16.0536 22.3642 16.3436 22.4411 16.6616 22.4411C16.9625 22.4411 17.3066 22.3444 17.6932 22.1511V20.6081Z" fill="white"/>
<path d="M24.0827 17.8675C24.4153 17.9896 24.672 18.1647 24.8544 18.3918C25.0363 18.6195 25.1272 18.8861 25.1272 19.1932C25.1272 19.5003 25.0347 19.7789 24.8502 20.0117C24.6652 20.245 24.4142 20.4041 24.0957 20.4893C24.4766 20.5631 24.7759 20.7366 24.9952 21.0095C25.214 21.2823 25.3237 21.6118 25.3237 21.9984C25.3237 22.3336 25.2301 22.6278 25.0425 22.8809C24.8549 23.134 24.5878 23.3273 24.2412 23.4608C23.8945 23.5944 23.4882 23.6609 23.022 23.6609H20.0723V17.6851H22.9113C23.3603 17.6851 23.7511 17.7464 24.0837 17.8685L24.0827 17.8675ZM23.3369 19.9052C23.4617 19.8002 23.5245 19.6536 23.5245 19.466C23.5245 19.2784 23.4622 19.1433 23.3369 19.044C23.2117 18.9448 23.0412 18.898 22.8256 18.9032H21.6318V20.0626H22.8256C23.0417 20.0626 23.2122 20.0101 23.3369 19.9052ZM23.4731 22.2796C23.6321 22.1658 23.7116 22.0068 23.7116 21.802C23.7116 21.6144 23.6321 21.4652 23.4731 21.3546C23.3141 21.2439 23.0979 21.1914 22.825 21.1971H21.6313V22.4501H22.825C23.0979 22.4501 23.3135 22.3934 23.4731 22.2796Z" fill="white"/>
<path d="M30.5746 18.2334C30.9951 18.5998 31.2055 19.1158 31.2055 19.7805C31.2055 20.4852 30.9951 21.0324 30.5746 21.4217C30.1542 21.8109 29.5628 22.0058 28.8015 22.0058H27.7361V23.6595H26.176V17.6836H28.8015C29.5628 17.6836 30.1542 17.867 30.5746 18.2334ZM29.462 20.5221C29.635 20.3631 29.7218 20.1329 29.7218 19.8315C29.7218 19.53 29.635 19.3185 29.462 19.1621C29.2884 19.0057 29.0426 18.9277 28.7246 18.9277H27.7356V20.7606H28.7246C29.0426 20.7606 29.2884 20.6811 29.462 20.5221Z" fill="white"/>
</svg>
