<svg width="40" height="40" viewBox="0 0 40 40" fill="none" xmlns="http://www.w3.org/2000/svg">
<path d="M20.5 37C29.6127 37 37 29.6127 37 20.5C37 11.3873 29.6127 4 20.5 4C11.3873 4 4 11.3873 4 20.5C4 29.6127 11.3873 37 20.5 37Z" fill="#464646"/>
<path d="M20.5 34.5033C28.2339 34.5033 34.5035 28.2338 34.5035 20.4999C34.5035 12.766 28.2339 6.49646 20.5 6.49646C12.7661 6.49646 6.49658 12.766 6.49658 20.4999C6.49658 28.2338 12.7661 34.5033 20.5 34.5033Z" fill="#3D3D3D"/>
<path d="M27.8262 8.54822C29.2205 10.7252 30.0292 13.3137 30.0292 16.0909C30.0292 23.8249 23.7597 30.0944 16.0257 30.0944C13.34 30.0944 10.831 29.3377 8.69922 28.0265C11.188 31.9117 15.543 34.4873 20.4997 34.4873C28.2337 34.4873 34.5031 28.2178 34.5031 20.4838C34.5031 15.4361 31.832 11.0126 27.8262 8.54822Z" fill="#353535"/>
<path d="M8.95039 21.7818C8.95039 14.9547 14.4845 9.42059 21.3116 9.42059C25.3023 9.42059 28.8502 11.3117 31.1103 14.2464C28.9759 10.541 24.9749 8.04602 20.3913 8.04602C13.5642 8.04602 8.03003 13.5801 8.03003 20.4072C8.03003 23.2437 8.98625 25.8567 10.5926 27.9427C9.54803 26.129 8.94987 24.0253 8.94987 21.7818H8.95039Z" fill="#4F4F4F"/>
<path d="M14.2058 18.3028C14.0492 18.3028 13.9216 18.3486 13.823 18.4404C13.7244 18.5321 13.6751 18.6636 13.6751 18.8349V19.156H14.7192V20.2385H13.6751V23.8807H12.1351V20.2385H11.5V19.156H12.1351V18.6972C12.1351 18.1713 12.3004 17.7584 12.6311 17.4587C12.9675 17.1529 13.3967 17 13.9187 17C14.261 17 14.5974 17.0642 14.928 17.1927L14.7279 18.4312C14.4959 18.3456 14.3219 18.3028 14.2058 18.3028Z" fill="white"/>
<path d="M18.4587 17.3486C19.0793 17.3486 19.639 17.4924 20.1379 17.7798C20.6425 18.0673 21.0369 18.4618 21.3211 18.9633C21.6112 19.4648 21.7562 20.0275 21.7562 20.6514C21.7562 21.2813 21.6112 21.8502 21.3211 22.3578C21.0369 22.8654 20.6425 23.2661 20.1379 23.5596C19.639 23.8532 19.0793 24 18.4587 24C17.838 24 17.2754 23.8563 16.7708 23.5688C16.272 23.2752 15.8775 22.8746 15.5875 22.367C15.3033 21.8532 15.1612 21.2813 15.1612 20.6514C15.1612 20.0275 15.3033 19.4648 15.5875 18.9633C15.8775 18.4618 16.272 18.0673 16.7708 17.7798C17.2754 17.4924 17.838 17.3486 18.4587 17.3486ZM18.4761 18.7706C18.1745 18.7706 17.8932 18.8532 17.6321 19.0183C17.3769 19.1835 17.1739 19.4128 17.0231 19.7064C16.8723 19.9939 16.7969 20.3119 16.7969 20.6606C16.7969 21.0153 16.8723 21.3394 17.0231 21.633C17.1797 21.9205 17.3856 22.1498 17.6408 22.3211C17.8961 22.4862 18.1745 22.5688 18.4761 22.5688C18.7777 22.5688 19.0532 22.4862 19.3026 22.3211C19.5578 22.1498 19.758 21.9205 19.903 21.633C20.048 21.3394 20.1205 21.0153 20.1205 20.6606C20.1205 20.3119 20.048 19.9939 19.903 19.7064C19.758 19.4128 19.5578 19.1835 19.3026 19.0183C19.0532 18.8532 18.7777 18.7706 18.4761 18.7706Z" fill="white"/>
<path d="M22.5454 17.4495H24.1376V23.8807H22.5454V17.4495Z" fill="white"/>
<path d="M25.3238 17.4495H26.916V22.4495H29.5V23.8807H25.3238V17.4495Z" fill="white"/>
</svg>
