<svg width="40" height="40" viewBox="0 0 40 40" fill="none" xmlns="http://www.w3.org/2000/svg">
<path d="M20.5 37C29.6127 37 37 29.6127 37 20.5C37 11.3873 29.6127 4 20.5 4C11.3873 4 4 11.3873 4 20.5C4 29.6127 11.3873 37 20.5 37Z" fill="url(#paint0_linear_29_2709)"/>
<path d="M16.0134 13.3218V16.9109H28.5766C30.5585 16.9109 32.1657 15.3037 32.1657 13.3218H16.0134Z" fill="white"/>
<path d="M16.0134 22.2942H24.9866C26.9685 22.2942 28.5758 20.687 28.5758 18.7051H16.0134V22.2942Z" fill="white"/>
<path d="M14.2192 20.5V15.1167H8.83594C8.83594 18.0904 11.2464 20.5 14.2192 20.5Z" fill="white"/>
<path d="M21.3982 24.0891H16.0141C16.0141 24.585 15.8129 25.0329 15.4887 25.3579C15.1638 25.682 14.715 25.8832 14.22 25.8832V27.6774H23.1932V25.8832C22.2022 25.8832 21.399 25.0801 21.399 24.0891H21.3982Z" fill="white"/>
<defs>
<linearGradient id="paint0_linear_29_2709" x1="11.4956" y1="37.0434" x2="46.1065" y2="19.9678" gradientUnits="userSpaceOnUse">
<stop stop-color="#CD212A"/>
<stop offset="1" stop-color="#FFA500"/>
</linearGradient>
</defs>
</svg>
