<svg width="40" height="40" viewBox="0 0 40 40" fill="none" xmlns="http://www.w3.org/2000/svg">
<path d="M20.5 37C29.6127 37 37 29.6127 37 20.5C37 11.3873 29.6127 4 20.5 4C11.3873 4 4 11.3873 4 20.5C4 29.6127 11.3873 37 20.5 37Z" fill="#CECECE"/>
<path d="M20.4995 34.5035C28.2334 34.5035 34.503 28.2339 34.503 20.5C34.503 12.7661 28.2334 6.49658 20.4995 6.49658C12.7656 6.49658 6.49609 12.7661 6.49609 20.5C6.49609 28.2339 12.7656 34.5035 20.4995 34.5035Z" fill="#C5C5C5"/>
<path d="M27.8262 8.54846C29.2205 10.7254 30.0292 13.314 30.0292 16.0912C30.0292 23.8251 23.7597 30.0946 16.0257 30.0946C13.34 30.0946 10.831 29.3379 8.69922 28.0268C11.188 31.9119 15.543 34.4875 20.4997 34.4875C28.2337 34.4875 34.5031 28.218 34.5031 20.4841C34.5031 15.4364 31.832 11.0128 27.8262 8.54846Z" fill="#BDBDBD"/>
<path d="M8.94771 21.7817C8.94771 14.9546 14.4818 9.42047 21.3089 9.42047C25.2996 9.42047 28.8475 11.3116 31.1076 14.2463C28.9733 10.5409 24.9722 8.0459 20.3886 8.0459C13.5615 8.0459 8.02734 13.58 8.02734 20.4071C8.02734 23.2436 8.98356 25.8565 10.5899 27.9426C9.54534 26.1289 8.94719 24.0252 8.94719 21.7817H8.94771Z" fill="#D7D7D7"/>
<path d="M11.799 18.278C11.637 18.278 11.505 18.323 11.403 18.413C11.301 18.503 11.25 18.632 11.25 18.8V19.115H12.33V20.177H11.25V23.75H9.657V20.177H9V19.115H9.657V18.665C9.657 18.149 9.828 17.744 10.17 17.45C10.518 17.15 10.962 17 11.502 17C11.856 17 12.204 17.063 12.546 17.189L12.339 18.404C12.099 18.32 11.919 18.278 11.799 18.278Z" fill="#616161"/>
<path d="M12.5054 17.441H14.4224L15.6014 19.232L16.7894 17.441H18.7334L16.6544 20.456L18.9134 23.75H16.9424L15.6014 21.797L14.2874 23.75H12.3614L14.6024 20.537L12.5054 17.441Z" fill="#616161"/>
<path d="M24.2169 23.75L23.7849 22.634H21.0579L20.6169 23.75H18.9249L21.6339 17.441H23.3259L25.9719 23.75H24.2169ZM21.5529 21.374H23.2989L22.4349 19.124L21.5529 21.374Z" fill="#616161"/>
<path d="M30.5518 20.528H31.9738V23.039C31.6378 23.285 31.2238 23.486 30.7318 23.642C30.2458 23.792 29.7838 23.867 29.3458 23.867C28.7098 23.867 28.1338 23.726 27.6178 23.444C27.1078 23.156 26.7058 22.763 26.4118 22.265C26.1178 21.767 25.9708 21.209 25.9708 20.591C25.9708 19.979 26.1208 19.427 26.4208 18.935C26.7268 18.437 27.1438 18.047 27.6718 17.765C28.2058 17.483 28.7998 17.342 29.4538 17.342C29.9218 17.342 30.3898 17.429 30.8578 17.603C31.3258 17.771 31.7218 17.999 32.0458 18.287L31.1098 19.439C30.8818 19.223 30.6178 19.052 30.3178 18.926C30.0238 18.8 29.7328 18.737 29.4448 18.737C29.1088 18.737 28.8058 18.818 28.5358 18.98C28.2658 19.142 28.0528 19.364 27.8968 19.646C27.7408 19.928 27.6628 20.243 27.6628 20.591C27.6628 20.945 27.7408 21.266 27.8968 21.554C28.0528 21.836 28.2688 22.058 28.5448 22.22C28.8208 22.382 29.1268 22.463 29.4628 22.463C29.7808 22.463 30.1438 22.361 30.5518 22.157V20.528Z" fill="#616161"/>
</svg>
