<svg width="40" height="40" viewBox="0 0 40 40" fill="none" xmlns="http://www.w3.org/2000/svg">
<path d="M20.5 37C29.6127 37 37 29.6127 37 20.5C37 11.3873 29.6127 4 20.5 4C11.3873 4 4 11.3873 4 20.5C4 29.6127 11.3873 37 20.5 37Z" fill="#FFD715"/>
<path d="M20.5 34.5035C28.2339 34.5035 34.5035 28.2339 34.5035 20.5C34.5035 12.7661 28.2339 6.49658 20.5 6.49658C12.7661 6.49658 6.49658 12.7661 6.49658 20.5C6.49658 28.2339 12.7661 34.5035 20.5 34.5035Z" fill="#FFCC01"/>
<path d="M27.8265 8.54834C29.2208 10.7253 30.0294 13.3139 30.0294 16.091C30.0294 23.825 23.7599 30.0945 16.026 30.0945C13.3403 30.0945 10.8312 29.3378 8.69946 28.0267C11.1882 31.9118 15.5432 34.4874 20.5 34.4874C28.2339 34.4874 34.5034 28.2179 34.5034 20.4839C34.5034 15.4362 31.8322 11.0127 27.8265 8.54834Z" fill="#FCBD11"/>
<path d="M8.94941 21.7816C8.94941 14.9545 14.4835 9.42034 21.3106 9.42034C25.3013 9.42034 28.8492 11.3115 31.1093 14.2461C28.975 10.5408 24.9739 8.04578 20.3903 8.04578C13.5632 8.04578 8.02905 13.5799 8.02905 20.407C8.02905 23.2434 8.98527 25.8564 10.5916 27.9424C9.54705 26.1287 8.9489 24.0251 8.9489 21.7816H8.94941Z" fill="#FFDB53"/>
<path d="M11.799 18.278C11.637 18.278 11.505 18.323 11.403 18.413C11.301 18.503 11.25 18.632 11.25 18.8V19.115H12.33V20.177H11.25V23.75H9.657V20.177H9V19.115H9.657V18.665C9.657 18.149 9.828 17.744 10.17 17.45C10.518 17.15 10.962 17 11.502 17C11.856 17 12.204 17.063 12.546 17.189L12.339 18.404C12.099 18.32 11.919 18.278 11.799 18.278Z" fill="#BD7D1C"/>
<path d="M12.5054 17.441H14.4224L15.6014 19.232L16.7894 17.441H18.7334L16.6544 20.456L18.9134 23.75H16.9424L15.6014 21.797L14.2874 23.75H12.3614L14.6024 20.537L12.5054 17.441Z" fill="#BD7D1C"/>
<path d="M24.2169 23.75L23.7849 22.634H21.0579L20.6169 23.75H18.9249L21.6339 17.441H23.3259L25.9719 23.75H24.2169ZM21.5529 21.374H23.2989L22.4349 19.124L21.5529 21.374Z" fill="#BD7D1C"/>
<path d="M27.906 21.149C27.906 21.545 28.023 21.863 28.257 22.103C28.491 22.343 28.788 22.463 29.148 22.463C29.502 22.463 29.787 22.346 30.003 22.112C30.225 21.872 30.336 21.551 30.336 21.149V17.441H31.983V21.149C31.983 21.695 31.866 22.175 31.632 22.589C31.404 22.997 31.074 23.312 30.642 23.534C30.216 23.756 29.715 23.867 29.139 23.867C28.563 23.867 28.056 23.756 27.618 23.534C27.186 23.312 26.85 22.997 26.61 22.589C26.376 22.175 26.259 21.695 26.259 21.149V17.441H27.906V21.149Z" fill="#BD7D1C"/>
</svg>
