<svg width="40" height="40" viewBox="0 0 40 40" fill="none" xmlns="http://www.w3.org/2000/svg">
<path fill-rule="evenodd" clip-rule="evenodd" d="M19.9999 3.3335C29.2049 3.3335 36.6666 10.7953 36.6666 20.0002C36.6666 29.2044 29.2049 36.6669 19.9999 36.6669C10.795 36.6669 3.33325 29.2044 3.33325 20.0002C3.33325 10.7953 10.795 3.3335 19.9999 3.3335Z" fill="#2775CA"/>
<path fill-rule="evenodd" clip-rule="evenodd" d="M16.8758 31.588C16.8758 31.98 16.5688 32.2028 16.1896 32.0844C11.1504 30.4768 7.49683 25.7516 7.49683 20.1762C7.49683 14.601 11.1504 9.87564 16.1896 8.26807C16.5688 8.15045 16.8758 8.37242 16.8758 8.76447V9.73227C16.8758 9.99326 16.6735 10.3005 16.4249 10.3855C12.4379 11.8495 9.58187 15.6796 9.58187 20.1696C9.58187 24.6596 12.4379 28.4904 16.4249 29.9537C16.6735 30.0454 16.8758 30.3458 16.8758 30.6077V31.588Z" fill="white"/>
<path fill-rule="evenodd" clip-rule="evenodd" d="M21.0389 27.9865C21.0389 28.2744 20.8037 28.5096 20.5162 28.5096H19.4768C19.1893 28.5096 18.954 28.2744 18.954 27.9865V26.3397C16.6794 26.0327 15.5686 24.7579 15.2679 23.0261C15.2154 22.7316 15.4506 22.4638 15.7514 22.4638H16.941C17.1893 22.4638 17.3985 22.6405 17.4508 22.8884C17.6732 23.9212 18.2679 24.7121 20.0912 24.7121C21.4376 24.7121 22.3921 23.9604 22.3921 22.8367C22.3921 21.7121 21.8298 21.2874 19.8559 20.9604C16.941 20.5683 15.562 19.6857 15.562 17.3982C15.562 15.6336 16.8955 14.2613 18.9607 13.967V12.3526C18.9607 12.0649 19.1961 11.8295 19.4834 11.8295H20.5228C20.8103 11.8295 21.0455 12.0649 21.0455 12.3526V14.0128C22.7252 14.3139 23.7906 15.2675 24.1372 16.8492C24.2023 17.1503 23.9671 17.4308 23.6601 17.4308H22.5618C22.3266 17.4308 22.1306 17.2738 22.0588 17.0452C21.7646 16.0391 21.0455 15.6079 19.797 15.6079C18.418 15.6079 17.7055 16.2744 17.7055 17.2088C17.7055 18.1958 18.111 18.6922 20.2288 18.9999C23.0912 19.392 24.5686 20.2088 24.5686 22.6473C24.5686 24.4967 23.1959 25.9935 21.0455 26.3397V27.9865H21.0389Z" fill="white"/>
<path fill-rule="evenodd" clip-rule="evenodd" d="M23.8104 32.0844C23.4317 32.2027 23.1243 31.98 23.1243 31.588V30.6209C23.1243 30.3332 23.3008 30.0654 23.5752 29.9669C27.5622 28.5029 30.4182 24.6728 30.4182 20.1828C30.4182 15.6928 27.5622 11.8627 23.5752 10.3987C23.3269 10.307 23.1243 10.0067 23.1243 9.74473V8.77769C23.1243 8.38564 23.4317 8.15704 23.8104 8.28053C28.8497 9.88905 32.5033 14.6142 32.5033 20.1894C32.497 25.7514 28.8497 30.4701 23.8104 32.0844Z" fill="white"/>
</svg>
